<svg width="14" height="16" viewBox="0 0 14 16" fill="none" xmlns="http://www.w3.org/2000/svg">
<path d="M4.33801 1.59C3.38559 1.85248 2.43965 2.1379 1.50101 2.446C1.41529 2.47376 1.3391 2.52504 1.28111 2.59399C1.22312 2.66295 1.18567 2.7468 1.17301 2.836C0.619005 6.993 1.89901 10.026 3.42601 12.024C4.07252 12.8784 4.84341 13.6311 5.71301 14.257C6.05901 14.501 6.36501 14.677 6.60601 14.79C6.72601 14.847 6.82401 14.885 6.89901 14.908C6.93181 14.9195 6.96562 14.9279 7.00001 14.933C7.03398 14.9275 7.06743 14.9191 7.10001 14.908C7.17601 14.885 7.27401 14.847 7.39401 14.79C7.63401 14.677 7.94101 14.5 8.28701 14.257C9.15659 13.6311 9.92748 12.8784 10.574 12.024C12.101 10.027 13.381 6.993 12.827 2.836C12.8145 2.74676 12.777 2.66285 12.719 2.59388C12.661 2.52491 12.5848 2.47366 12.499 2.446C11.848 2.233 10.749 1.886 9.66201 1.591C8.55201 1.29 7.53101 1.067 7.00001 1.067C6.47001 1.067 5.44801 1.29 4.33801 1.591V1.59ZM4.07201 0.56C5.15701 0.265 6.31001 0 7.00001 0C7.69001 0 8.84301 0.265 9.92801 0.56C11.038 0.86 12.157 1.215 12.815 1.43C13.0901 1.52085 13.334 1.68747 13.5187 1.9107C13.7034 2.13394 13.8213 2.40474 13.859 2.692C14.455 7.169 13.072 10.487 11.394 12.682C10.6824 13.621 9.834 14.4479 8.87701 15.135C8.5461 15.3728 8.19549 15.5819 7.82901 15.76C7.54901 15.892 7.24801 16 7.00001 16C6.75201 16 6.45201 15.892 6.17101 15.76C5.80452 15.5819 5.45391 15.3728 5.12301 15.135C4.16603 14.4478 3.31759 13.621 2.60601 12.682C0.928005 10.487 -0.454995 7.169 0.141005 2.692C0.178693 2.40474 0.296648 2.13394 0.481322 1.9107C0.665996 1.68747 0.909897 1.52085 1.18501 1.43C2.1402 1.11681 3.10281 0.826725 4.07201 0.56Z" fill="#424153"/>
<path d="M9.85461 5.14687C9.90118 5.19331 9.93812 5.24849 9.96332 5.30923C9.98853 5.36998 10.0015 5.4351 10.0015 5.50087C10.0015 5.56663 9.98853 5.63175 9.96332 5.6925C9.93812 5.75324 9.90118 5.80842 9.85461 5.85487L6.85461 8.85487C6.80817 8.90143 6.75299 8.93837 6.69225 8.96358C6.6315 8.98878 6.56638 9.00176 6.50061 9.00176C6.43484 9.00176 6.36972 8.98878 6.30898 8.96358C6.24823 8.93837 6.19306 8.90143 6.14661 8.85487L4.64661 7.35487C4.60012 7.30838 4.56325 7.25319 4.53809 7.19245C4.51293 7.13171 4.49998 7.06661 4.49998 7.00087C4.49998 6.93512 4.51293 6.87002 4.53809 6.80928C4.56325 6.74854 4.60012 6.69335 4.64661 6.64687C4.6931 6.60038 4.74829 6.5635 4.80903 6.53834C4.86977 6.51318 4.93487 6.50023 5.00061 6.50023C5.06636 6.50023 5.13146 6.51318 5.1922 6.53834C5.25294 6.5635 5.30812 6.60038 5.35461 6.64687L6.50061 7.79387L9.14661 5.14687C9.19306 5.1003 9.24823 5.06336 9.30898 5.03815C9.36972 5.01295 9.43484 4.99997 9.50061 4.99997C9.56638 4.99997 9.6315 5.01295 9.69225 5.03815C9.75299 5.06336 9.80817 5.1003 9.85461 5.14687Z" fill="#424153"/>
</svg>
